<svg id="Layer_1" data-name="Layer 1" xmlns="http://www.w3.org/2000/svg" xmlns:xlink="http://www.w3.org/1999/xlink" viewBox="0 0 628.9 316.14"><defs><style>.cls-1{fill:url(#linear-gradient);}.cls-2{fill:url(#linear-gradient-2);}.cls-3{fill:url(#linear-gradient-3);}.cls-4{fill:url(#linear-gradient-4);}.cls-5{fill:url(#linear-gradient-5);}.cls-6{fill:url(#linear-gradient-6);}.cls-7,.cls-8{font-size:83.76px;font-family:DINCondensed-Bold, DIN Condensed;font-weight:700;}.cls-7{fill:#231f20;}.cls-8{fill:#cf212d;}.cls-9{letter-spacing:-0.01em;}.cls-10{letter-spacing:0em;}</style><linearGradient id="linear-gradient" x1="107.35" y1="167.65" x2="203.11" y2="167.65" gradientTransform="translate(164.01 -60.66) rotate(45)" gradientUnits="userSpaceOnUse"><stop offset="0" stop-color="#f7987a"/><stop offset="0.06" stop-color="#f68f72"/><stop offset="0.5" stop-color="#f1583e"/><stop offset="0.76" stop-color="#de3b35"/><stop offset="1" stop-color="#cf232d"/></linearGradient><linearGradient id="linear-gradient-2" x1="132.49" y1="204.24" x2="251.3" y2="204.24" gradientTransform="translate(200.63 -75.87) rotate(45)" xlink:href="#linear-gradient"/><linearGradient id="linear-gradient-3" x1="203.83" y1="205.21" x2="324.58" y2="205.21" gradientTransform="translate(222.49 -126.72) rotate(45)" xlink:href="#linear-gradient"/><linearGradient id="linear-gradient-4" x1="225.82" y1="256.89" x2="346.56" y2="256.89" gradientTransform="translate(265.47 -127.13) rotate(45)" xlink:href="#linear-gradient"/><linearGradient id="linear-gradient-5" x1="237.58" y1="332.96" x2="329.98" y2="332.96" gradientTransform="translate(318.56 -103.14) rotate(45)" xlink:href="#linear-gradient"/><linearGradient id="linear-gradient-6" x1="257.12" y1="403.5" x2="316.42" y2="403.5" gradientTransform="translate(369.31 -84.6) rotate(45)" xlink:href="#linear-gradient"/></defs><rect class="cls-1" x="93.54" y="153.1" width="123.38" height="29.09" rx="14.54" transform="translate(-180.43 39.1) rotate(-45)"/><rect class="cls-2" x="113.9" y="189.7" width="155.98" height="29.09" rx="14.54" transform="translate(-195.57 75.74) rotate(-45)"/><rect class="cls-3" x="184.85" y="190.66" width="158.7" height="29.09" rx="14.54" transform="translate(-175.07 127.16) rotate(-45)"/><rect class="cls-4" x="206.84" y="242.34" width="158.7" height="29.09" rx="14.54" transform="translate(-205.17 157.84) rotate(-45)"/><rect class="cls-5" x="224.47" y="318.42" width="118.62" height="29.09" rx="14.54" transform="translate(-259.67 178.42) rotate(-45)"/><rect class="cls-6" x="250.86" y="388.96" width="71.81" height="29.09" rx="14.54" transform="translate(-308.67 201.19) rotate(-45)"/><text class="cls-7" transform="translate(285.84 213.56)">Africa</text><text class="cls-8" transform="translate(285.84 137.12)">E-Comme<tspan class="cls-9" x="258.8" y="0">r</tspan><tspan class="cls-10" x="281.08" y="0">ce</tspan></text><text class="cls-8" transform="translate(285.84 290)">Summit 2024</text></svg>